<svg width="10.858368" height="15.201141" viewBox="0 0 10.8584 15.2011" fill="none" xmlns="http://www.w3.org/2000/svg" xmlns:xlink="http://www.w3.org/1999/xlink">
	<defs/>
	<path id="Vector" d="M5.42917 0C2.43567 0 0 2.32947 0 5.19165C0 6.55472 0.621307 8.36737 1.84659 10.5794C2.83063 12.3555 3.96906 13.9615 4.56119 14.7606C4.66125 14.8971 4.79205 15.0082 4.94305 15.0847C5.09402 15.1613 5.26093 15.2011 5.43021 15.2011C5.59949 15.2011 5.76636 15.1613 5.91736 15.0847C6.06833 15.0082 6.19916 14.8971 6.29919 14.7606C6.89032 13.9615 8.02975 12.3555 9.01379 10.5794C10.2371 8.36807 10.8584 6.55539 10.8584 5.19165C10.8584 2.32947 8.4227 0 5.42917 0ZM5.42917 7.60086C4.99966 7.60086 4.5798 7.47348 4.22266 7.23486C3.86554 6.99625 3.58719 6.65707 3.42282 6.26025C3.25845 5.86343 3.21545 5.42676 3.29922 5.00549C3.38303 4.58426 3.58987 4.1973 3.89359 3.89359C4.1973 3.58987 4.58426 3.38303 5.00549 3.29922C5.42676 3.21545 5.86343 3.25845 6.26025 3.42282C6.65707 3.58719 6.99625 3.86554 7.23486 4.22266C7.47348 4.5798 7.60086 4.99966 7.60086 5.42917C7.60022 6.00494 7.37122 6.55695 6.96408 6.96408C6.55695 7.37122 6.00494 7.60022 5.42917 7.60086Z" fill="#FC1200" fill-opacity="1.000000" fill-rule="nonzero"/>
</svg>
