<svg width="20.749588" height="19.783417" viewBox="0 0 20.7496 19.7834" fill="none" xmlns="http://www.w3.org/2000/svg" xmlns:xlink="http://www.w3.org/1999/xlink">
	<defs/>
	<path id="Star 3" d="M9.89927 0.34549L7.79288 6.82828C7.72595 7.03427 7.53397 7.17377 7.31735 7.17377L0.500957 7.17377C0.0165958 7.17377 -0.184792 7.79355 0.207066 8.07828L5.72165 12.0848C5.89689 12.2122 5.97022 12.4378 5.90328 12.6439L3.7969 19.1266C3.64722 19.5873 4.17447 19.9704 4.56632 19.6857L10.0809 15.6791C10.2561 15.5518 10.4934 15.5518 10.6687 15.6791L16.1833 19.6856C16.5751 19.9703 17.1024 19.5873 16.9527 19.1266L14.8463 12.6439C14.7794 12.4378 14.8527 12.2122 15.0279 12.0848L20.5425 8.07825C20.9344 7.79355 20.733 7.17377 20.2486 7.17377L13.4322 7.17377C13.2156 7.17377 13.0236 7.03427 12.9567 6.82825L10.8503 0.34549C10.7006 -0.115173 10.0489 -0.115173 9.89927 0.34549Z" fill="#FFC700" fill-opacity="1.000000" fill-rule="evenodd"/>
</svg>
